# xmcd CD database file
#
# Track frame offsets:
#	150
#	11218
#	38899
#	52250
#	77514
#	90730
#	103986
#	136784
#	152069
#	166704
#	181211
#	198621
#	211847
#	227149
#	241917
#	254194
#	270745
#
# Disc length: 3795 seconds
#
# Revision: 0
# Processed by: cddbd v1.5.1PL0 Copyright (c) Steve Scherf et al.
# Submitted via: CDex 1.51
#
DISCID=ec0ed111
DTITLE=Oscar Peterson - The Song Is You
DYEAR=1952
DGENRE=Jazz
TTITLE0=The Song Is You
TTITLE1=Tea For Two
TTITLE2=Without A Song
TTITLE3=I Want To Be Happy
TTITLE4=The Lady Is A Tramp
TTITLE5=Blue Moon
TTITLE6=Lover
TTITLE7=John Hardy's Wife
TTITLE8=Things Ain't What They Used To Be
TTITLE9=I Got It Bad (And That Ain't Good)
TTITLE10=Cotton Tail
TTITLE11=Rockin' is Rhythm
TTITLE12=Somebody Loves Me
TTITLE13=Strike Up The Band
TTITLE14=I Was Doing All Right
TTITLE15=A Foggy Day
TTITLE16=Love Walked In
EXTD=YEAR: 1952
EXTT0=
EXTT1=
EXTT2=
EXTT3=
EXTT4=
EXTT5=
EXTT6=
EXTT7=
EXTT8=
EXTT9=
EXTT10=
EXTT11=
EXTT12=
EXTT13=
EXTT14=
EXTT15=
EXTT16=
PLAYORDER=
